bw_sq_02
version=1
nRows=18
nColumns=46
inDegrees=yes
endheader
time	ground_force3_vx	ground_force3_vy	ground_force3_vz	ground_force3_px	ground_force3_py	ground_force3_pz	ground_torque3_x	ground_torque3_y	ground_torque3_z	ground_force5_vx	ground_force5_vy	ground_force5_vz	ground_force5_px	ground_force5_py	ground_force5_pz	ground_torque5_x	ground_torque5_y	ground_torque5_z	ground_force4_vx	ground_force4_vy	ground_force4_vz	ground_force4_px	ground_force4_py	ground_force4_pz	ground_torque4_x	ground_torque4_y	ground_torque4_z	ground_force1_vx	ground_force1_vy	ground_force1_vz	ground_force1_px	ground_force1_py	ground_force1_pz	ground_torque1_x	ground_torque1_y	ground_torque1_z	ground_force2_vx	ground_force2_vy	ground_force2_vz	ground_force2_px	ground_force2_py	ground_force2_pz	ground_torque2_x	ground_torque2_y	ground_torque2_z
1.675000	-0.000000	-0.000000	0.000000	0.200000	0.000000	-0.300000	0.000000	0.000000	-0.000000	2.359098	394.536469	6.352075	0.216023	0.000000	-1.315055	0.000008	-4.113188	0.000004	-4.411959	317.860901	-2.945989	0.210903	0.000000	-1.056679	0.000013	5.309411	0.000003	-0.000000	-0.000000	0.000000	0.200000	0.000000	0.904000	0.000000	0.000000	-0.000000	-0.000000	-0.000000	0.000000	0.400000	0.000000	0.302000	0.000000	0.000000	-0.000000	
1.676000	-0.000000	-0.000000	0.000000	0.200000	0.000000	-0.300000	0.000000	0.000000	-0.000000	2.519801	394.219238	5.548728	0.215813	0.000000	-1.314806	0.000033	-4.016835	0.000003	-4.085240	320.739594	-2.785455	0.211568	0.000000	-1.055335	0.000024	5.363984	0.000005	-0.000000	-0.000000	0.000000	0.200000	0.000000	0.904000	0.000000	0.000000	-0.000000	-0.000000	-0.000000	0.000000	0.400000	0.000000	0.302000	0.000000	0.000000	-0.000000	
1.677000	-0.000000	-0.000000	0.000000	0.200000	0.000000	-0.300000	0.000000	0.000000	-0.000000	1.553543	396.134918	5.870473	0.216113	0.000000	-1.314700	0.000011	-4.103031	0.000007	-4.091418	319.457336	-3.590166	0.211787	0.000000	-1.056995	0.000030	5.141934	0.000001	-0.000000	-0.000000	0.000000	0.200000	0.000000	0.904000	0.000000	0.000000	-0.000000	-0.000000	-0.000000	0.000000	0.400000	0.000000	0.302000	0.000000	0.000000	-0.000000	
1.678000	-0.000000	-0.000000	0.000000	0.200000	0.000000	-0.300000	0.000000	0.000000	-0.000000	2.518273	395.495758	5.387855	0.216237	0.000000	-1.314795	0.000038	-3.842994	0.000004	-3.442615	320.740967	-3.269098	0.211657	0.000000	-1.054980	0.000029	5.057042	0.000004	-0.000000	-0.000000	0.000000	0.200000	0.000000	0.904000	0.000000	0.000000	-0.000000	-0.000000	-0.000000	0.000000	0.400000	0.000000	0.302000	0.000000	0.000000	-0.000000	
1.679000	-0.000000	-0.000000	0.000000	0.200000	0.000000	-0.300000	0.000000	0.000000	-0.000000	2.840189	393.905029	5.709600	0.216252	0.000000	-1.313699	0.000010	-3.745777	0.000002	-4.089874	318.491272	-2.945989	0.212326	0.000000	-1.057170	0.000040	5.201377	0.000002	-0.000000	-0.000000	0.000000	0.200000	0.000000	0.904000	0.000000	0.000000	-0.000000	-0.000000	-0.000000	0.000000	0.400000	0.000000	0.302000	0.000000	0.000000	-0.000000	
1.680000	-0.000000	-0.000000	0.000000	0.200000	0.000000	-0.300000	0.000000	0.000000	-0.000000	2.196866	392.951019	5.548728	0.217103	0.000000	-1.313038	0.000023	-3.952336	0.000003	-3.930376	320.736206	-2.463367	0.211775	0.000000	-1.056138	0.000035	5.049190	0.000007	-0.000000	-0.000000	0.000000	0.200000	0.000000	0.904000	0.000000	0.000000	-0.000000	-0.000000	-0.000000	0.000000	0.400000	0.000000	0.302000	0.000000	0.000000	-0.000000	
1.681000	-0.000000	-0.000000	0.000000	0.200000	0.000000	-0.300000	0.000000	0.000000	-0.000000	1.874441	394.547485	4.744701	0.216923	0.000000	-1.313835	0.000029	-3.994267	0.000006	-4.089874	321.378357	-3.106523	0.211935	0.000000	-1.055900	0.000020	5.216209	0.000002	-0.000000	-0.000000	0.000000	0.200000	0.000000	0.904000	0.000000	0.000000	-0.000000	-0.000000	-0.000000	0.000000	0.400000	0.000000	0.302000	0.000000	0.000000	-0.000000	
1.682000	-0.000000	-0.000000	0.000000	0.200000	0.000000	-0.300000	0.000000	0.000000	-0.000000	1.713737	395.185577	4.745378	0.217037	0.000000	-1.313448	0.000023	-3.979722	0.000009	-4.091418	317.855164	-3.267057	0.212343	0.000000	-1.057557	0.000005	5.181013	0.000002	-0.000000	-0.000000	0.000000	0.200000	0.000000	0.904000	0.000000	0.000000	-0.000000	-0.000000	-0.000000	0.000000	0.400000	0.000000	0.302000	0.000000	0.000000	-0.000000	
1.683000	-0.000000	-0.000000	0.000000	0.200000	0.000000	-0.300000	0.000000	0.000000	-0.000000	1.389784	394.234558	4.906251	0.217604	0.000000	-1.313844	0.000049	-3.770583	0.000004	-3.770878	320.098816	-2.782394	0.212029	0.000000	-1.055652	-0.000004	5.046128	0.000004	-0.000000	-0.000000	0.000000	0.200000	0.000000	0.904000	0.000000	0.000000	-0.000000	-0.000000	-0.000000	0.000000	0.400000	0.000000	0.302000	0.000000	0.000000	-0.000000	
1.684000	-0.000000	-0.000000	0.000000	0.200000	0.000000	-0.300000	0.000000	0.000000	-0.000000	1.068886	393.593811	5.226643	0.217280	0.000000	-1.313809	0.000012	-4.079847	0.000006	-3.767789	319.133057	-2.461326	0.212971	0.000000	-1.055859	0.000020	5.135813	0.000006	-0.000000	-0.000000	0.000000	0.200000	0.000000	0.904000	0.000000	0.000000	-0.000000	-0.000000	-0.000000	0.000000	0.400000	0.000000	0.302000	0.000000	0.000000	-0.000000	
1.685000	-0.000000	-0.000000	0.000000	0.200000	0.000000	-0.300000	0.000000	0.000000	-0.000000	1.550487	394.548431	4.584845	0.217050	0.000000	-1.314230	0.000025	-3.700327	0.000006	-3.767789	320.095459	-3.267057	0.212850	0.000000	-1.054845	0.000002	5.122419	0.000002	-0.000000	-0.000000	0.000000	0.200000	0.000000	0.904000	0.000000	0.000000	-0.000000	-0.000000	-0.000000	0.000000	0.400000	0.000000	0.302000	0.000000	0.000000	-0.000000	
1.686000	-0.000000	-0.000000	0.000000	0.200000	0.000000	-0.300000	0.000000	0.000000	-0.000000	0.584739	393.915009	4.424311	0.216978	0.000000	-1.313903	-0.000004	-3.860779	0.000005	-3.606746	316.889771	-1.816129	0.213162	0.000000	-1.057152	0.000012	5.114366	0.000004	-0.000000	-0.000000	0.000000	0.200000	0.000000	0.904000	0.000000	0.000000	-0.000000	-0.000000	-0.000000	0.000000	0.400000	0.000000	0.302000	0.000000	0.000000	-0.000000	
1.687000	-0.000000	-0.000000	0.000000	0.200000	0.000000	-0.300000	0.000000	0.000000	-0.000000	-0.218779	395.829376	5.066446	0.217610	0.000000	-1.314504	-0.000006	-4.265256	0.000004	-3.769333	317.851501	-2.623901	0.213221	0.000000	-1.056120	0.000012	5.017037	0.000001	-0.000000	-0.000000	0.000000	0.200000	0.000000	0.904000	0.000000	0.000000	-0.000000	-0.000000	-0.000000	0.000000	0.400000	0.000000	0.302000	0.000000	0.000000	-0.000000	
1.688000	-0.000000	-0.000000	0.000000	0.200000	0.000000	-0.300000	0.000000	0.000000	-0.000000	0.745442	394.878662	4.905573	0.218147	0.000000	-1.313839	0.000020	-3.908308	0.000007	-4.089874	316.892151	-1.655595	0.213311	0.000000	-1.056679	0.000023	5.262886	0.000002	-0.000000	-0.000000	0.000000	0.200000	0.000000	0.904000	0.000000	0.000000	-0.000000	-0.000000	-0.000000	0.000000	0.400000	0.000000	0.302000	0.000000	0.000000	-0.000000	
1.689000	-0.000000	-0.000000	0.000000	0.200000	0.000000	-0.300000	0.000000	0.000000	-0.000000	0.263332	396.471405	4.584167	0.217628	0.000000	-1.313815	0.000038	-4.088230	0.000009	-3.284661	317.854187	-2.299772	0.213074	0.000000	-1.056501	0.000023	4.984492	0.000003	-0.000000	-0.000000	0.000000	0.200000	0.000000	0.904000	0.000000	0.000000	-0.000000	-0.000000	-0.000000	0.000000	0.400000	0.000000	0.302000	0.000000	0.000000	-0.000000	
1.690000	-0.000000	-0.000000	0.000000	0.200000	0.000000	-0.300000	0.000000	0.000000	-0.000000	-0.703945	395.196594	4.101547	0.217746	0.000000	-1.313930	0.000053	-4.128546	0.000003	-4.250916	317.851501	-1.814090	0.213347	0.000000	-1.056847	0.000037	5.419457	0.000005	-0.000000	-0.000000	0.000000	0.200000	0.000000	0.904000	0.000000	0.000000	-0.000000	-0.000000	-0.000000	0.000000	0.400000	0.000000	0.302000	0.000000	0.000000	-0.000000	
1.691000	-0.000000	-0.000000	0.000000	0.200000	0.000000	-0.300000	0.000000	0.000000	-0.000000	-0.863630	395.198883	3.780819	0.217734	0.000000	-1.315448	0.000033	-4.235663	0.000001	-3.767789	317.850830	-2.136179	0.213611	0.000000	-1.056891	0.000014	5.252927	0.000001	-0.000000	-0.000000	0.000000	0.200000	0.000000	0.904000	0.000000	0.000000	-0.000000	-0.000000	-0.000000	0.000000	0.400000	0.000000	0.302000	0.000000	0.000000	-0.000000	
1.692000	-0.000000	-0.000000	0.000000	0.200000	0.000000	-0.300000	0.000000	0.000000	-0.000000	-0.541204	395.523071	3.138002	0.218626	0.000000	-1.314821	0.000021	-4.231172	0.000002	-3.933465	317.208008	-2.296715	0.213797	0.000000	-1.058126	-0.000012	5.143352	0.000003	-0.000000	-0.000000	0.000000	0.200000	0.000000	0.904000	0.000000	0.000000	-0.000000	-0.000000	-0.000000	0.000000	0.400000	0.000000	0.302000	0.000000	0.000000	-0.000000	
